#N canvas 80 265 773 694 12;
#X obj 965 17 OSC;
#X msg 44 119 disconnect;
#X text 8 143 ========================================;
#X msg 93 183 send /mrs_natural/formantOrder \$1;
#X obj 518 10 vsl 15 128 2 20 0 0 empty empty empty 0 -8 0 8 -262144
-1 -1 0 1;
#X text 543 9 order of the formant lpc (1->20);
#X obj 558 56 vsl 15 128 1 100 0 0 empty empty empty 0 -8 0 8 -262144
-1 -1 2300 1;
#X obj 592 109 vsl 15 128 1 100 0 0 empty empty empty 0 -8 0 8 -262144
-1 -1 500 1;
#X obj 632 154 vsl 15 128 1 100 0 0 empty empty empty 0 -8 0 8 -262144
-1 -1 10100 1;
#X obj 25 606 sendOSC;
#X obj 680 207 vsl 15 128 1 100 0 0 empty empty empty 0 -8 0 8 -262144
-1 -1 11500 1;
#X text 584 54 frequency of the Pole;
#X text 618 107 amplitude of the Pole;
#X text 660 155 tilt;
#X text 711 210 breathiness;
#X msg 255 379 send /breathinessSlider \$1;
#X msg 207 326 send /tiltSlider \$1;
#X msg 167 281 send /amplitudePoleSlider \$1;
#X msg 133 228 send /frequencyPoleSlider \$1;
#X text 657 386 Example of usage of OscMapper in Marsyas By convention
\, every osc messages with mrs_* relates to a control existing in the
network. Otherwise \, it relates to a Qt slot explicitely registered
with the OscMapper.;
#X msg 254 424 send /SoundFileSource/src/mrs_bool/mute \$1;
#X obj 718 363 tgl 15 0 empty empty empty 0 -6 0 8 -262144 -1 -1 0
1;
#X text 739 361 mute;
#X obj 26 50 print rcvOSC;
#X text 201 94 connect to the OscMapper server side.;
#X text 653 474 comment;
#X floatatom 260 458 5 0 0 0 - - -;
#X floatatom 323 460 5 0 0 0 - - -;
#X floatatom 380 461 5 0 0 0 - - -;
#X obj 256 507 pack f f f;
#X obj 247 619 print;
#X obj 26 9 dumpOSC 3;
#X text 119 9 Listen to the messages send by the OscMapper client side.
;
#X msg 254 544 send /FanOutIn/fanoutin/Series/aSeries/Filter/resonance/mrs_realvec/dcoeffs
\$1 \$2 \$3;
#X msg 26 93 connect localhost 7000 1;
#X connect 1 0 9 0;
#X connect 3 0 9 0;
#X connect 4 0 3 0;
#X connect 6 0 18 0;
#X connect 7 0 17 0;
#X connect 8 0 16 0;
#X connect 10 0 15 0;
#X connect 15 0 9 0;
#X connect 16 0 9 0;
#X connect 17 0 9 0;
#X connect 18 0 9 0;
#X connect 20 0 9 0;
#X connect 21 0 20 0;
#X connect 26 0 29 0;
#X connect 27 0 29 1;
#X connect 28 0 29 2;
#X connect 29 0 33 0;
#X connect 31 0 23 0;
#X connect 33 0 9 0;
#X connect 33 0 30 0;
#X connect 34 0 9 0;
