#N canvas 5 358 1176 525 12;
#X msg 44 119 disconnect;
#X text 8 143 ========================================;
#X msg 26 93 connect localhost 9999;
#X msg 93 183 send /mrs_natural/formantOrder \$1;
#X obj 518 10 vsl 15 128 2 20 0 0 empty empty empty 0 -8 0 8 -262144
-1 -1 12700 1;
#X text 544 9 order of the formant lpc (1->20);
#X obj 558 56 vsl 15 128 1 100 0 0 empty empty empty 0 -8 0 8 -262144
-1 -1 2300 1;
#X obj 592 109 vsl 15 128 1 100 0 0 empty empty empty 0 -8 0 8 -262144
-1 -1 1000 1;
#X obj 632 154 vsl 15 128 1 100 0 0 empty empty empty 0 -8 0 8 -262144
-1 -1 1700 1;
#X obj 26 457 sendOSC;
#X obj 680 207 vsl 15 128 1 100 0 0 empty empty empty 0 -8 0 8 -262144
-1 -1 8600 1;
#X text 584 54 frequency of the Pole;
#X text 618 107 amplitude of the Pole;
#X text 660 155 tilt;
#X text 711 210 breathiness;
#X msg 255 379 send /breathinessSlider \$1;
#X msg 207 326 send /tiltSlider \$1;
#X msg 167 281 send /amplitudePoleSlider \$1;
#X msg 133 228 send /frequencyPoleSlider \$1;
#X text 657 386 Example of usage of OscMapper in Marsyas By convention
\, every osc messages with mrs_* relates to a control existing in the
network. Otherwise \, it relates to a Qt slot explicitely registered
with the OscMapper.;
#X msg 254 424 send /SoundFileSource/src/mrs_bool/mute \$1;
#X obj 718 363 tgl 15 0 empty empty empty 0 -6 0 8 -262144 -1 -1 1
1;
#X text 739 361 mute;
#X connect 0 0 9 0;
#X connect 2 0 9 0;
#X connect 3 0 9 0;
#X connect 4 0 3 0;
#X connect 6 0 18 0;
#X connect 7 0 17 0;
#X connect 8 0 16 0;
#X connect 10 0 15 0;
#X connect 15 0 9 0;
#X connect 16 0 9 0;
#X connect 17 0 9 0;
#X connect 18 0 9 0;
#X connect 20 0 9 0;
#X connect 21 0 20 0;
